<?xml version="1.0" encoding="UTF-8" standalone="no"?>
<!DOCTYPE svg PUBLIC "-//W3C//DTD SVG 1.1//EN"
 "http://www.w3.org/Graphics/SVG/1.1/DTD/svg11.dtd">
<!-- Generated by graphviz version 8.0.2 (20230410.1723)
 -->
<!-- Pages: 1 -->
<svg width="602pt" height="156pt"
 viewBox="0.00 0.00 602.00 156.00" xmlns="http://www.w3.org/2000/svg" xmlns:xlink="http://www.w3.org/1999/xlink">
<g id="graph0" class="graph" transform="scale(1 1) rotate(0) translate(4 152)">
<polygon fill="white" stroke="none" points="-4,4 -4,-152 598,-152 598,4 -4,4"/>
<!-- 2580112927808 -->
<g id="node1" class="node">
<title>2580112927808</title>
<polygon fill="none" stroke="black" points="0,-111.5 0,-147.5 54,-147.5 54,-111.5 0,-111.5"/>
<text text-anchor="middle" x="27" y="-125.8" font-family="Times New Roman,serif" font-size="14.00">x_1</text>
</g>
<!-- 2580112925552* -->
<g id="node8" class="node">
<title>2580112925552*</title>
<ellipse fill="none" stroke="black" cx="117" cy="-101.5" rx="27" ry="18"/>
<text text-anchor="middle" x="117" y="-97.8" font-family="Times New Roman,serif" font-size="14.00">*</text>
</g>
<!-- 2580112927808&#45;&gt;2580112925552* -->
<g id="edge4" class="edge">
<title>2580112927808&#45;&gt;2580112925552*</title>
<path fill="none" stroke="black" d="M53.93,-121.25C62.6,-118.49 72.41,-115.37 81.62,-112.44"/>
<polygon fill="black" stroke="black" points="82.59,-115.48 91.06,-109.12 80.47,-108.81 82.59,-115.48"/>
</g>
<!-- 2580112927856 -->
<g id="node2" class="node">
<title>2580112927856</title>
<polygon fill="none" stroke="black" points="180,-28.5 180,-64.5 234,-64.5 234,-28.5 180,-28.5"/>
<text text-anchor="middle" x="207" y="-42.8" font-family="Times New Roman,serif" font-size="14.00">x_3</text>
</g>
<!-- 2580112927616+ -->
<g id="node10" class="node">
<title>2580112927616+</title>
<ellipse fill="none" stroke="black" cx="297" cy="-73.5" rx="27" ry="18"/>
<text text-anchor="middle" x="297" y="-69.8" font-family="Times New Roman,serif" font-size="14.00">+</text>
</g>
<!-- 2580112927856&#45;&gt;2580112927616+ -->
<g id="edge8" class="edge">
<title>2580112927856&#45;&gt;2580112927616+</title>
<path fill="none" stroke="black" d="M233.93,-54.45C242.6,-57.12 252.41,-60.12 261.62,-62.95"/>
<polygon fill="black" stroke="black" points="260.48,-66.57 271.06,-66.16 262.53,-59.88 260.48,-66.57"/>
</g>
<!-- 2580112928480 -->
<g id="node3" class="node">
<title>2580112928480</title>
<polygon fill="none" stroke="black" points="360,-0.5 360,-36.5 414,-36.5 414,-0.5 360,-0.5"/>
<text text-anchor="middle" x="387" y="-14.8" font-family="Times New Roman,serif" font-size="14.00">x_4</text>
</g>
<!-- 2580112928528* -->
<g id="node5" class="node">
<title>2580112928528*</title>
<ellipse fill="none" stroke="black" cx="477" cy="-45.5" rx="27" ry="18"/>
<text text-anchor="middle" x="477" y="-41.8" font-family="Times New Roman,serif" font-size="14.00">*</text>
</g>
<!-- 2580112928480&#45;&gt;2580112928528* -->
<g id="edge6" class="edge">
<title>2580112928480&#45;&gt;2580112928528*</title>
<path fill="none" stroke="black" d="M413.93,-26.45C422.6,-29.12 432.41,-32.12 441.62,-34.95"/>
<polygon fill="black" stroke="black" points="440.48,-38.57 451.06,-38.16 442.53,-31.88 440.48,-38.57"/>
</g>
<!-- 2580112928528 -->
<g id="node4" class="node">
<title>2580112928528</title>
<polygon fill="none" stroke="black" points="540,-27.5 540,-63.5 594,-63.5 594,-27.5 540,-27.5"/>
<text text-anchor="middle" x="567" y="-41.8" font-family="Times New Roman,serif" font-size="14.00">L</text>
</g>
<!-- 2580112928528*&#45;&gt;2580112928528 -->
<g id="edge1" class="edge">
<title>2580112928528*&#45;&gt;2580112928528</title>
<path fill="none" stroke="black" d="M504.4,-45.5C512.29,-45.5 521.08,-45.5 529.49,-45.5"/>
<polygon fill="black" stroke="black" points="529.22,-49 539.22,-45.5 529.22,-42 529.22,-49"/>
</g>
<!-- 2580112925504 -->
<g id="node6" class="node">
<title>2580112925504</title>
<polygon fill="none" stroke="black" points="0,-56.5 0,-92.5 54,-92.5 54,-56.5 0,-56.5"/>
<text text-anchor="middle" x="27" y="-70.8" font-family="Times New Roman,serif" font-size="14.00">x_2</text>
</g>
<!-- 2580112925504&#45;&gt;2580112925552* -->
<g id="edge9" class="edge">
<title>2580112925504&#45;&gt;2580112925552*</title>
<path fill="none" stroke="black" d="M53.93,-82.45C62.6,-85.12 72.41,-88.12 81.62,-90.95"/>
<polygon fill="black" stroke="black" points="80.48,-94.57 91.06,-94.16 82.53,-87.88 80.48,-94.57"/>
</g>
<!-- 2580112925552 -->
<g id="node7" class="node">
<title>2580112925552</title>
<polygon fill="none" stroke="black" points="180,-83.5 180,-119.5 234,-119.5 234,-83.5 180,-83.5"/>
<text text-anchor="middle" x="207" y="-97.8" font-family="Times New Roman,serif" font-size="14.00">e</text>
</g>
<!-- 2580112925552&#45;&gt;2580112927616+ -->
<g id="edge5" class="edge">
<title>2580112925552&#45;&gt;2580112927616+</title>
<path fill="none" stroke="black" d="M233.93,-93.25C242.6,-90.49 252.41,-87.37 261.62,-84.44"/>
<polygon fill="black" stroke="black" points="262.59,-87.48 271.06,-81.12 260.47,-80.81 262.59,-87.48"/>
</g>
<!-- 2580112925552*&#45;&gt;2580112925552 -->
<g id="edge2" class="edge">
<title>2580112925552*&#45;&gt;2580112925552</title>
<path fill="none" stroke="black" d="M144.4,-101.5C152.29,-101.5 161.08,-101.5 169.49,-101.5"/>
<polygon fill="black" stroke="black" points="169.22,-105 179.22,-101.5 169.22,-98 169.22,-105"/>
</g>
<!-- 2580112927616 -->
<g id="node9" class="node">
<title>2580112927616</title>
<polygon fill="none" stroke="black" points="360,-55.5 360,-91.5 414,-91.5 414,-55.5 360,-55.5"/>
<text text-anchor="middle" x="387" y="-69.8" font-family="Times New Roman,serif" font-size="14.00">d</text>
</g>
<!-- 2580112927616&#45;&gt;2580112928528* -->
<g id="edge7" class="edge">
<title>2580112927616&#45;&gt;2580112928528*</title>
<path fill="none" stroke="black" d="M413.93,-65.25C422.6,-62.49 432.41,-59.37 441.62,-56.44"/>
<polygon fill="black" stroke="black" points="442.59,-59.48 451.06,-53.12 440.47,-52.81 442.59,-59.48"/>
</g>
<!-- 2580112927616+&#45;&gt;2580112927616 -->
<g id="edge3" class="edge">
<title>2580112927616+&#45;&gt;2580112927616</title>
<path fill="none" stroke="black" d="M324.4,-73.5C332.29,-73.5 341.08,-73.5 349.49,-73.5"/>
<polygon fill="black" stroke="black" points="349.22,-77 359.22,-73.5 349.22,-70 349.22,-77"/>
</g>
</g>
</svg>
