<?xml version="1.0" encoding="UTF-8" standalone="no"?>
<!DOCTYPE svg PUBLIC "-//W3C//DTD SVG 1.1//EN"
 "http://www.w3.org/Graphics/SVG/1.1/DTD/svg11.dtd">
<!-- Generated by graphviz version 8.0.2 (20230410.1723)
 -->
<!-- Pages: 1 -->
<svg width="1211pt" height="156pt"
 viewBox="0.00 0.00 1211.00 156.00" xmlns="http://www.w3.org/2000/svg" xmlns:xlink="http://www.w3.org/1999/xlink">
<g id="graph0" class="graph" transform="scale(1 1) rotate(0) translate(4 152)">
<polygon fill="white" stroke="none" points="-4,4 -4,-152 1207,-152 1207,4 -4,4"/>
<!-- 2580112927808 -->
<g id="node1" class="node">
<title>2580112927808</title>
<polygon fill="none" stroke="black" points="4.5,-111.5 4.5,-147.5 206.5,-147.5 206.5,-111.5 4.5,-111.5"/>
<text text-anchor="middle" x="23.5" y="-125.8" font-family="Times New Roman,serif" font-size="14.00">x_1</text>
<polyline fill="none" stroke="black" points="42.5,-111.5 42.5,-147.5"/>
<text text-anchor="middle" x="83" y="-125.8" font-family="Times New Roman,serif" font-size="14.00">data 2.0000</text>
<polyline fill="none" stroke="black" points="123.5,-111.5 123.5,-147.5"/>
<text text-anchor="middle" x="165" y="-125.8" font-family="Times New Roman,serif" font-size="14.00">grad 6.0000</text>
</g>
<!-- 2580112925552* -->
<g id="node8" class="node">
<title>2580112925552*</title>
<ellipse fill="none" stroke="black" cx="274" cy="-101.5" rx="27" ry="18"/>
<text text-anchor="middle" x="274" y="-97.8" font-family="Times New Roman,serif" font-size="14.00">*</text>
</g>
<!-- 2580112927808&#45;&gt;2580112925552* -->
<g id="edge4" class="edge">
<title>2580112927808&#45;&gt;2580112925552*</title>
<path fill="none" stroke="black" d="M206.24,-112.73C217.07,-110.91 227.51,-109.15 236.8,-107.59"/>
<polygon fill="black" stroke="black" points="237.21,-110.9 246.49,-105.79 236.05,-104 237.21,-110.9"/>
</g>
<!-- 2580112927856 -->
<g id="node2" class="node">
<title>2580112927856</title>
<polygon fill="none" stroke="black" points="337,-28.5 337,-64.5 550,-64.5 550,-28.5 337,-28.5"/>
<text text-anchor="middle" x="356" y="-42.8" font-family="Times New Roman,serif" font-size="14.00">x_3</text>
<polyline fill="none" stroke="black" points="375,-28.5 375,-64.5"/>
<text text-anchor="middle" x="419" y="-42.8" font-family="Times New Roman,serif" font-size="14.00">data 10.0000</text>
<polyline fill="none" stroke="black" points="463,-28.5 463,-64.5"/>
<text text-anchor="middle" x="506.5" y="-42.8" font-family="Times New Roman,serif" font-size="14.00">grad &#45;2.0000</text>
</g>
<!-- 2580112927616+ -->
<g id="node10" class="node">
<title>2580112927616+</title>
<ellipse fill="none" stroke="black" cx="613" cy="-73.5" rx="27" ry="18"/>
<text text-anchor="middle" x="613" y="-69.8" font-family="Times New Roman,serif" font-size="14.00">+</text>
</g>
<!-- 2580112927856&#45;&gt;2580112927616+ -->
<g id="edge8" class="edge">
<title>2580112927856&#45;&gt;2580112927616+</title>
<path fill="none" stroke="black" d="M549.63,-63.45C558.83,-64.93 567.67,-66.35 575.64,-67.64"/>
<polygon fill="black" stroke="black" points="574.87,-71.22 585.3,-69.36 575.99,-64.31 574.87,-71.22"/>
</g>
<!-- 2580112928480 -->
<g id="node3" class="node">
<title>2580112928480</title>
<polygon fill="none" stroke="black" points="676,-0.5 676,-36.5 883,-36.5 883,-0.5 676,-0.5"/>
<text text-anchor="middle" x="695" y="-14.8" font-family="Times New Roman,serif" font-size="14.00">x_4</text>
<polyline fill="none" stroke="black" points="714,-0.5 714,-36.5"/>
<text text-anchor="middle" x="757" y="-14.8" font-family="Times New Roman,serif" font-size="14.00">data &#45;2.0000</text>
<polyline fill="none" stroke="black" points="800,-0.5 800,-36.5"/>
<text text-anchor="middle" x="841.5" y="-14.8" font-family="Times New Roman,serif" font-size="14.00">grad 4.0000</text>
</g>
<!-- 2580112928528* -->
<g id="node5" class="node">
<title>2580112928528*</title>
<ellipse fill="none" stroke="black" cx="946" cy="-45.5" rx="27" ry="18"/>
<text text-anchor="middle" x="946" y="-41.8" font-family="Times New Roman,serif" font-size="14.00">*</text>
</g>
<!-- 2580112928480&#45;&gt;2580112928528* -->
<g id="edge6" class="edge">
<title>2580112928480&#45;&gt;2580112928528*</title>
<path fill="none" stroke="black" d="M882.81,-35.29C891.96,-36.79 900.75,-38.24 908.71,-39.54"/>
<polygon fill="black" stroke="black" points="907.9,-43.12 918.33,-41.29 909.03,-36.21 907.9,-43.12"/>
</g>
<!-- 2580112928528 -->
<g id="node4" class="node">
<title>2580112928528</title>
<polygon fill="none" stroke="black" points="1009,-27.5 1009,-63.5 1203,-63.5 1203,-27.5 1009,-27.5"/>
<text text-anchor="middle" x="1021.5" y="-41.8" font-family="Times New Roman,serif" font-size="14.00">L</text>
<polyline fill="none" stroke="black" points="1034,-27.5 1034,-63.5"/>
<text text-anchor="middle" x="1077" y="-41.8" font-family="Times New Roman,serif" font-size="14.00">data &#45;8.0000</text>
<polyline fill="none" stroke="black" points="1120,-27.5 1120,-63.5"/>
<text text-anchor="middle" x="1161.5" y="-41.8" font-family="Times New Roman,serif" font-size="14.00">grad 1.0000</text>
</g>
<!-- 2580112928528*&#45;&gt;2580112928528 -->
<g id="edge1" class="edge">
<title>2580112928528*&#45;&gt;2580112928528</title>
<path fill="none" stroke="black" d="M973.45,-45.5C980.83,-45.5 989.34,-45.5 998.41,-45.5"/>
<polygon fill="black" stroke="black" points="998.27,-49 1008.27,-45.5 998.27,-42 998.27,-49"/>
</g>
<!-- 2580112925504 -->
<g id="node6" class="node">
<title>2580112925504</title>
<polygon fill="none" stroke="black" points="0,-56.5 0,-92.5 211,-92.5 211,-56.5 0,-56.5"/>
<text text-anchor="middle" x="19" y="-70.8" font-family="Times New Roman,serif" font-size="14.00">x_2</text>
<polyline fill="none" stroke="black" points="38,-56.5 38,-92.5"/>
<text text-anchor="middle" x="81" y="-70.8" font-family="Times New Roman,serif" font-size="14.00">data &#45;3.0000</text>
<polyline fill="none" stroke="black" points="124,-56.5 124,-92.5"/>
<text text-anchor="middle" x="167.5" y="-70.8" font-family="Times New Roman,serif" font-size="14.00">grad &#45;4.0000</text>
</g>
<!-- 2580112925504&#45;&gt;2580112925552* -->
<g id="edge9" class="edge">
<title>2580112925504&#45;&gt;2580112925552*</title>
<path fill="none" stroke="black" d="M210.53,-91.37C219.73,-92.86 228.57,-94.3 236.56,-95.59"/>
<polygon fill="black" stroke="black" points="235.81,-99.18 246.24,-97.32 236.93,-92.27 235.81,-99.18"/>
</g>
<!-- 2580112925552 -->
<g id="node7" class="node">
<title>2580112925552</title>
<polygon fill="none" stroke="black" points="345.5,-83.5 345.5,-119.5 541.5,-119.5 541.5,-83.5 345.5,-83.5"/>
<text text-anchor="middle" x="357" y="-97.8" font-family="Times New Roman,serif" font-size="14.00">e</text>
<polyline fill="none" stroke="black" points="368.5,-83.5 368.5,-119.5"/>
<text text-anchor="middle" x="411.5" y="-97.8" font-family="Times New Roman,serif" font-size="14.00">data &#45;6.0000</text>
<polyline fill="none" stroke="black" points="454.5,-83.5 454.5,-119.5"/>
<text text-anchor="middle" x="498" y="-97.8" font-family="Times New Roman,serif" font-size="14.00">grad &#45;2.0000</text>
</g>
<!-- 2580112925552&#45;&gt;2580112927616+ -->
<g id="edge5" class="edge">
<title>2580112925552&#45;&gt;2580112927616+</title>
<path fill="none" stroke="black" d="M541.45,-85.29C553.67,-83.25 565.51,-81.27 575.88,-79.54"/>
<polygon fill="black" stroke="black" points="576.23,-82.86 585.51,-77.76 575.07,-75.96 576.23,-82.86"/>
</g>
<!-- 2580112925552*&#45;&gt;2580112925552 -->
<g id="edge2" class="edge">
<title>2580112925552*&#45;&gt;2580112925552</title>
<path fill="none" stroke="black" d="M301.17,-101.5C310.78,-101.5 322.35,-101.5 334.67,-101.5"/>
<polygon fill="black" stroke="black" points="334.67,-105 344.67,-101.5 334.67,-98 334.67,-105"/>
</g>
<!-- 2580112927616 -->
<g id="node9" class="node">
<title>2580112927616</title>
<polygon fill="none" stroke="black" points="683.5,-55.5 683.5,-91.5 875.5,-91.5 875.5,-55.5 683.5,-55.5"/>
<text text-anchor="middle" x="695.5" y="-69.8" font-family="Times New Roman,serif" font-size="14.00">d</text>
<polyline fill="none" stroke="black" points="707.5,-55.5 707.5,-91.5"/>
<text text-anchor="middle" x="748" y="-69.8" font-family="Times New Roman,serif" font-size="14.00">data 4.0000</text>
<polyline fill="none" stroke="black" points="788.5,-55.5 788.5,-91.5"/>
<text text-anchor="middle" x="832" y="-69.8" font-family="Times New Roman,serif" font-size="14.00">grad &#45;2.0000</text>
</g>
<!-- 2580112927616&#45;&gt;2580112928528* -->
<g id="edge7" class="edge">
<title>2580112927616&#45;&gt;2580112928528*</title>
<path fill="none" stroke="black" d="M875.24,-57.37C887.07,-55.36 898.55,-53.41 908.66,-51.69"/>
<polygon fill="black" stroke="black" points="909.18,-54.98 918.45,-49.85 908,-48.08 909.18,-54.98"/>
</g>
<!-- 2580112927616+&#45;&gt;2580112927616 -->
<g id="edge3" class="edge">
<title>2580112927616+&#45;&gt;2580112927616</title>
<path fill="none" stroke="black" d="M640.43,-73.5C649.84,-73.5 661.1,-73.5 673.07,-73.5"/>
<polygon fill="black" stroke="black" points="672.75,-77 682.75,-73.5 672.75,-70 672.75,-77"/>
</g>
</g>
</svg>
