<?xml version="1.0" encoding="UTF-8" standalone="no"?>
<!DOCTYPE svg PUBLIC "-//W3C//DTD SVG 1.1//EN"
 "http://www.w3.org/Graphics/SVG/1.1/DTD/svg11.dtd">
<!-- Generated by graphviz version 8.0.2 (20230410.1723)
 -->
<!-- Pages: 1 -->
<svg width="871pt" height="156pt"
 viewBox="0.00 0.00 871.00 156.00" xmlns="http://www.w3.org/2000/svg" xmlns:xlink="http://www.w3.org/1999/xlink">
<g id="graph0" class="graph" transform="scale(1 1) rotate(0) translate(4 152)">
<polygon fill="white" stroke="none" points="-4,4 -4,-152 867,-152 867,4 -4,4"/>
<!-- 2580112927808 -->
<g id="node1" class="node">
<title>2580112927808</title>
<polygon fill="none" stroke="black" points="2.5,-111.5 2.5,-147.5 121.5,-147.5 121.5,-111.5 2.5,-111.5"/>
<text text-anchor="middle" x="21.5" y="-125.8" font-family="Times New Roman,serif" font-size="14.00">x_1</text>
<polyline fill="none" stroke="black" points="40.5,-111.5 40.5,-147.5"/>
<text text-anchor="middle" x="81" y="-125.8" font-family="Times New Roman,serif" font-size="14.00">data 2.0000</text>
</g>
<!-- 2580112925552* -->
<g id="node8" class="node">
<title>2580112925552*</title>
<ellipse fill="none" stroke="black" cx="187" cy="-101.5" rx="27" ry="18"/>
<text text-anchor="middle" x="187" y="-97.8" font-family="Times New Roman,serif" font-size="14.00">*</text>
</g>
<!-- 2580112927808&#45;&gt;2580112925552* -->
<g id="edge4" class="edge">
<title>2580112927808&#45;&gt;2580112925552*</title>
<path fill="none" stroke="black" d="M121.26,-116.24C131.23,-113.97 141.33,-111.67 150.48,-109.59"/>
<polygon fill="black" stroke="black" points="151.13,-112.8 160.1,-107.17 149.57,-105.98 151.13,-112.8"/>
</g>
<!-- 2580112927856 -->
<g id="node2" class="node">
<title>2580112927856</title>
<polygon fill="none" stroke="black" points="250,-28.5 250,-64.5 376,-64.5 376,-28.5 250,-28.5"/>
<text text-anchor="middle" x="269" y="-42.8" font-family="Times New Roman,serif" font-size="14.00">x_3</text>
<polyline fill="none" stroke="black" points="288,-28.5 288,-64.5"/>
<text text-anchor="middle" x="332" y="-42.8" font-family="Times New Roman,serif" font-size="14.00">data 10.0000</text>
</g>
<!-- 2580112927616+ -->
<g id="node10" class="node">
<title>2580112927616+</title>
<ellipse fill="none" stroke="black" cx="439" cy="-73.5" rx="27" ry="18"/>
<text text-anchor="middle" x="439" y="-69.8" font-family="Times New Roman,serif" font-size="14.00">+</text>
</g>
<!-- 2580112927856&#45;&gt;2580112927616+ -->
<g id="edge8" class="edge">
<title>2580112927856&#45;&gt;2580112927616+</title>
<path fill="none" stroke="black" d="M376,-60C384.99,-61.96 393.98,-63.92 402.22,-65.71"/>
<polygon fill="black" stroke="black" points="401.39,-69.33 411.91,-68.04 402.88,-62.49 401.39,-69.33"/>
</g>
<!-- 2580112928480 -->
<g id="node3" class="node">
<title>2580112928480</title>
<polygon fill="none" stroke="black" points="502,-0.5 502,-36.5 626,-36.5 626,-0.5 502,-0.5"/>
<text text-anchor="middle" x="521" y="-14.8" font-family="Times New Roman,serif" font-size="14.00">x_4</text>
<polyline fill="none" stroke="black" points="540,-0.5 540,-36.5"/>
<text text-anchor="middle" x="583" y="-14.8" font-family="Times New Roman,serif" font-size="14.00">data &#45;2.0000</text>
</g>
<!-- 2580112928528* -->
<g id="node5" class="node">
<title>2580112928528*</title>
<ellipse fill="none" stroke="black" cx="689" cy="-45.5" rx="27" ry="18"/>
<text text-anchor="middle" x="689" y="-41.8" font-family="Times New Roman,serif" font-size="14.00">*</text>
</g>
<!-- 2580112928480&#45;&gt;2580112928528* -->
<g id="edge6" class="edge">
<title>2580112928480&#45;&gt;2580112928528*</title>
<path fill="none" stroke="black" d="M625.78,-31.84C634.77,-33.81 643.78,-35.79 652.04,-37.61"/>
<polygon fill="black" stroke="black" points="651.25,-41.24 661.77,-39.96 652.75,-34.4 651.25,-41.24"/>
</g>
<!-- 2580112928528 -->
<g id="node4" class="node">
<title>2580112928528</title>
<polygon fill="none" stroke="black" points="752,-27.5 752,-63.5 863,-63.5 863,-27.5 752,-27.5"/>
<text text-anchor="middle" x="764.5" y="-41.8" font-family="Times New Roman,serif" font-size="14.00">L</text>
<polyline fill="none" stroke="black" points="777,-27.5 777,-63.5"/>
<text text-anchor="middle" x="820" y="-41.8" font-family="Times New Roman,serif" font-size="14.00">data &#45;8.0000</text>
</g>
<!-- 2580112928528*&#45;&gt;2580112928528 -->
<g id="edge1" class="edge">
<title>2580112928528*&#45;&gt;2580112928528</title>
<path fill="none" stroke="black" d="M716.44,-45.5C723.98,-45.5 732.54,-45.5 741.32,-45.5"/>
<polygon fill="black" stroke="black" points="741.08,-49 751.08,-45.5 741.08,-42 741.08,-49"/>
</g>
<!-- 2580112925504 -->
<g id="node6" class="node">
<title>2580112925504</title>
<polygon fill="none" stroke="black" points="0,-56.5 0,-92.5 124,-92.5 124,-56.5 0,-56.5"/>
<text text-anchor="middle" x="19" y="-70.8" font-family="Times New Roman,serif" font-size="14.00">x_2</text>
<polyline fill="none" stroke="black" points="38,-56.5 38,-92.5"/>
<text text-anchor="middle" x="81" y="-70.8" font-family="Times New Roman,serif" font-size="14.00">data &#45;3.0000</text>
</g>
<!-- 2580112925504&#45;&gt;2580112925552* -->
<g id="edge9" class="edge">
<title>2580112925504&#45;&gt;2580112925552*</title>
<path fill="none" stroke="black" d="M123.78,-87.84C132.77,-89.81 141.78,-91.79 150.04,-93.61"/>
<polygon fill="black" stroke="black" points="149.25,-97.24 159.77,-95.96 150.75,-90.4 149.25,-97.24"/>
</g>
<!-- 2580112925552 -->
<g id="node7" class="node">
<title>2580112925552</title>
<polygon fill="none" stroke="black" points="258.5,-83.5 258.5,-119.5 367.5,-119.5 367.5,-83.5 258.5,-83.5"/>
<text text-anchor="middle" x="270" y="-97.8" font-family="Times New Roman,serif" font-size="14.00">e</text>
<polyline fill="none" stroke="black" points="281.5,-83.5 281.5,-119.5"/>
<text text-anchor="middle" x="324.5" y="-97.8" font-family="Times New Roman,serif" font-size="14.00">data &#45;6.0000</text>
</g>
<!-- 2580112925552&#45;&gt;2580112927616+ -->
<g id="edge5" class="edge">
<title>2580112925552&#45;&gt;2580112927616+</title>
<path fill="none" stroke="black" d="M367.31,-89.46C379.22,-86.77 391.57,-83.98 402.55,-81.5"/>
<polygon fill="black" stroke="black" points="403.03,-84.76 412.01,-79.14 401.48,-77.93 403.03,-84.76"/>
</g>
<!-- 2580112925552*&#45;&gt;2580112925552 -->
<g id="edge2" class="edge">
<title>2580112925552*&#45;&gt;2580112925552</title>
<path fill="none" stroke="black" d="M214.3,-101.5C224.2,-101.5 235.95,-101.5 247.81,-101.5"/>
<polygon fill="black" stroke="black" points="247.68,-105 257.68,-101.5 247.68,-98 247.68,-105"/>
</g>
<!-- 2580112927616 -->
<g id="node9" class="node">
<title>2580112927616</title>
<polygon fill="none" stroke="black" points="511.5,-55.5 511.5,-91.5 616.5,-91.5 616.5,-55.5 511.5,-55.5"/>
<text text-anchor="middle" x="523.5" y="-69.8" font-family="Times New Roman,serif" font-size="14.00">d</text>
<polyline fill="none" stroke="black" points="535.5,-55.5 535.5,-91.5"/>
<text text-anchor="middle" x="576" y="-69.8" font-family="Times New Roman,serif" font-size="14.00">data 4.0000</text>
</g>
<!-- 2580112927616&#45;&gt;2580112928528* -->
<g id="edge7" class="edge">
<title>2580112927616&#45;&gt;2580112928528*</title>
<path fill="none" stroke="black" d="M616.45,-61.79C628.5,-59.05 641.07,-56.18 652.26,-53.64"/>
<polygon fill="black" stroke="black" points="652.94,-56.84 661.91,-51.21 651.39,-50.02 652.94,-56.84"/>
</g>
<!-- 2580112927616+&#45;&gt;2580112927616 -->
<g id="edge3" class="edge">
<title>2580112927616+&#45;&gt;2580112927616</title>
<path fill="none" stroke="black" d="M466.39,-73.5C476.65,-73.5 488.88,-73.5 501.12,-73.5"/>
<polygon fill="black" stroke="black" points="500.84,-77 510.84,-73.5 500.84,-70 500.84,-77"/>
</g>
</g>
</svg>
